<?xml version="1.0" encoding="UTF-8"?>
<svg xmlns="http://www.w3.org/2000/svg" version="1.1" viewBox="0 0 119.1 51.31">
  <defs>
    <style>
      .cls-1 {
        stroke: #40210f;
        stroke-miterlimit: 10;
      }

      .cls-1, .cls-2 {
        fill: #40210f;
      }
    </style>
  </defs>
  <!-- Generator: Adobe Illustrator 28.7.1, SVG Export Plug-In . SVG Version: 1.2.0 Build 142)  -->
  <g>
    <g id="_レイヤー_1" data-name="レイヤー_1">
      <path class="cls-2" d="M4.3,5.8c1.81-1.48,3.03-2.92,5.41-4.17,3.38-1.78,3.66.51,3.62,6.78,2.19-.04,4.19-1.53,4.26-2.2-.25,2.44-.52,3.79-1.94,5.14-.29.27-1.49.86-2.32,1.15.67,15.1-3.67,16.61-10.21,14.54-5.01-2.9-3.45-9.1.82-8.18.3.04-4.19-.24-1.42,4.53,2.68,2.42,8.49,3.26,7.01-10.79-4.31-.86-6.43-3.71-7.16-4.73,0,0,1.93.54,2.94.66s1.5.1,4.43.03c0-3.72.35-5.7-2.15-4.29-1.1.6-5.74,3.53-3.29,1.53Z"/>
      <path class="cls-2" d="M23.28,5.84s4.08-3.21,5.58-4.16,3.82-.74,2.39,3.81c-.5,1.75-1.71,4.24-1.71,4.24-.92,7.26,2.67,26.33-12.09,15-.84-.62,10.92,7.54,8.53-11.62-.05.05-5.3,4.36-7.74,1.13,4.66-.01,9.14-7.79,9.89-9.07.5-1.06,1.16-1.68.08-1.39-1.75.74-7,3.71-4.93,2.07Z"/>
      <path class="cls-2" d="M48.64,5.52c.51.9-3.45,9.97-3.57,10.38,11.34,13.67,51.98,10.73,53.63,10.28,6.08-.87,17.1-6.36,20.4-16.95-4.39,14.99-5.68,23.04-42.74,21.03-12.12-.85-23.49-3.18-33.01-10.91-4.99,8-7.58,5.77-11.72,1.43,6.22,3.11,9.17-2.18,11.32-10.12-4.76.5-5.36.19-6.96-.16-1.1-.28-3.12-5.04-2.22-4.42.87.57.77.74,2.84,1.11s10.36-.26,11.89-1.27"/>
      <path class="cls-2" d="M53.11,4.93c-1.14,0,6.41-4.55,7.93-4.87s3.93.39,1.59,7.22c.58-.06,4.39-.54,6.05-.72.59-.15.8,3.92.8,6.14-.35,10.81-12.16,12.97-12.07,4.82,2.99,6.37,9.66-1,7.8-7.58,0,.05-3.15.36-3.87.5-.11.75-7.04,13.39-12.35,4.78-.66-1.53,4.03,6.91,8.63-4.61,0,0-4.03.92-5.13-2.33-.17-.4-.84-1.93-.04-.88,1.4.83,6.99.16,6.99.16,0,0,2.22-3.81,1.72-5.18-.9-.56-4.96,1.35-5.63,1.64-.7.29-1.02.42-2.41.91Z"/>
      <path class="cls-2" d="M75.01,2.21c1.09.77,5.55,4.02,1.36,9.17-1.9,2.05-3.99.78-5.33-1.66-.46-1.26.5.2,1.19.64s2.74-1.33,3.15-3.89-.99-3.62-1.4-4.18c-1.51-1.5,1.03-.08,1.03-.08Z"/>
      <path class="cls-2" d="M78.36,1.64c3.2.83,7,2.48,5.66,8.97-6.16,23.68-13.49,22.57-15.69,22.79-4.33-.2-4.56-1.22-8.15-3.78,7.78,2.27,14.78,1.11,18.78-17.22,1.63-6.59.94-8.25-.34-9.68-.86-.81-2.61-1.55-.26-1.09Z"/>
      <g>
        <path class="cls-2" d="M91.52,40.08c-.77-.38-1.34-.96-1.71-1.75,0,0,0,0,0,0,.03-.26.26-.58.68-.98.42-.4.76-.63,1.01-.69,0,0,0,0,0,0,.76.37,1.69,1.69,1.69,1.7,0,0,0,0,0,0,0,0-.81,1.26-1.67,1.72,0,0,0,0,0,0Z"/>
        <g>
          <g>
            <g>
              <path class="cls-2" d="M18.22,41.34s0,0,0,0c-.36-.14-.71-.26-1.04-.35-.34-.09-.72-.14-1.14-.16-.42-.01-.8.04-1.12.17-.32.13-.62.37-.88.73-.26.36-.44.83-.53,1.41-.02.1.31.13.97.09s1.32-.09,1.95-.14c.63-.05,1.07-.01,1.31.12,0,0,0,0,0,0,.85.8,1.44,1.54,1.78,2.22.17.33.1.8-.22,1.42-.4.77-.98,1.34-1.74,1.7-1.34.65-2.81.41-4.41-.72-.5-.35-.37-.19-1.49,2.69h-.72s1.54-4.24,1.84-4.08c.3.15.69.31,1.15.47.46.16.87.24,1.22.25.81.02,1.48-.19,2-.63.52-.44.82-1.04.88-1.79,0-.08-.3-.07-.92.03-.62.1-1.25.2-1.88.28-.63.08-1.11.02-1.44-.19,0,0,0,0,0,0-.34-.29-.88-.86-1.6-1.72-.23-.3-.35-.62-.36-.97,0-.34.1-.69.32-1.05.22-.35.5-.67.82-.95.32-.28.71-.51,1.15-.69.44-.18.88-.27,1.31-.27.11,0,.32.07.63.22s.73.37,1.28.67c.24.13.67.37.67.37,0,0,.73-1.88.81-2.01.23.1.45.18.45.18l-1.02,2.7Z"/>
              <path class="cls-2" d="M26.2,43.5c.25.24.44.52.58.85.14.33.22.67.24,1.01.02.35,0,.69-.09,1.05-.08.35-.2.69-.37.99-.16.31-.37.58-.61.82-.24.24-.51.42-.8.54-.29.12-.61.17-.97.14-.35-.03-.72-.15-1.08-.35-.48-.27-.95-.62-1.41-1.03-.37-.34-.64-.71-.82-1.14-.18-.42-.26-.83-.25-1.23.01-.4.09-.8.22-1.2.13-.4.32-.74.58-1.03.25-.29.53-.54.83-.74.3-.2.62-.31.97-.32.35,0,.68.07,1.01.23.83.46,1.49.93,1.99,1.4ZM24.92,43.39c-.56-.41-1.15-.34-1.76.19-.5.45-.84,1.06-1.01,1.81-.19.86-.04,1.51.44,1.95.06.05.12.1.19.15.34.2.69.24,1.06.14.36-.11.68-.35.95-.72.27-.37.48-.77.63-1.19.15-.42.19-.85.12-1.29-.08-.44-.28-.78-.62-1.03Z"/>
              <path class="cls-2" d="M32.71,42.03l1.6.38s0,0,0,0c0,.01-.08,4.36-.04,5.95.12,1.07,1.43.68,1.51.6,0,0,0,0,0,0l.04,1.52s0,0,0,0c-.19.05-1.54.31-2.16-.3-1.06-.77-.95-2.29-.95-2.31,0,0,0,0,0,0-.68.74-1.31,1.09-1.89,1.05-.27-.02-.76-.35-1.46-1.01-.7-.65-1.07-1.11-1.12-1.36-.03-.23-.05-2.31-.05-4.95,0-.07-1.06-1.11-1.06-1.18l.26-.26,2.38,2.26s0,0,0,0c-.04,3.12-.02,4.78.06,4.97.17.25.43.34.78.25.35-.09.73-.35,1.15-.78.42-.43.74-.89.94-1.4,0,0,0,0,0,0v-3.42s0,0,0,0Z"/>
              <path class="cls-2" d="M35.63,42.97l-.38-.95h1.05s0,0,0,0c.01-1.56.15-4.29-.23-4.29-.47-.18-1.09.37-1.1.38,0,0,0,0,0,0v-1.37s0,0,0,0c.94-.5,1.86-.46,2.52.36.43.73.42.66.4,4.93,0,0,0,0,0,0h1.56s0,0,0,0l.38.95h-1.95s0,0,0,0v2.18c0,.24,0,.49,0,.74,0,.24,0,.48.04.69.03.22.07.42.11.6.04.18.12.33.22.44s.23.18.37.22c.15.04.33.01.56-.07.23-.09.48-.23.78-.43l.35.42c-.5.48-.91.82-1.24,1.01-.29.18-.72.12-1.27-.18-.37-.2-.72-.47-1-.79-.32-.35-.47-.66-.47-.92v-3.89h-.67Z"/>
              <path class="cls-2" d="M40.71,33.89c1.05-.2,1.58.12,1.94.99.22.46.3,5.11.3,8.14,0,0,0,0,0,0,.79-.81,1.48-1.19,2.06-1.14.27.02.75.38,1.44,1.08.69.7,1.05,1.18,1.1,1.44.03.19.03,3.66.03,5.04,0,0,0,0,0,0,.45.47.84.87.9,1.03-.37.32-.4.42-.37.32s-2.08-2.09-2.09-2.09c0,0,0,0,0,0,.05-3.11.03-4.92-.06-5.1-.16-.32-.43-.41-.79-.28-.36.13-.74.37-1.13.71-.39.34-.75.72-1.08,1.15,0,0,0,0,0,0v3.74s0,0,0,0l-1.6-.38s0,0,0,0c0-.02-.02-10.78,0-11.51-.05-.91-.04-1.25-.47-1.66-.46-.34-1.58.34-1.6.34,0,0,0,0,0,0,0-.01,0-.58-.01-1.29,0,0,0,0,0,0,.54-.38,1.43-.54,1.43-.54Z"/>
              <path class="cls-2" d="M55.47,40.01l.03,11.06s0,0,0,0l-1.92-.48s0,0,0,0v-11.14s0,0,0,0l1.89.56s0,0,0,0Z"/>
              <path class="cls-2" d="M66.73,33.67c1.33-1.15,2.97-1.13,3.67-.18.37.45.33,2.89.33,2.87,0,0,0,0,0,0,.47,4.32.05,12.09,0,12.15-.04,0-.26.06-.66.16s-.65.15-.76.17c-.11.02-.34.05-.69.08-.35.04-.62.04-.82,0-.2-.04-.45-.1-.75-.18-.3-.09-.59-.21-.86-.37-.49-.28-.86-.63-1.13-1.03s-.41-.83-.42-1.25c-.02-.57.07-1.14.27-1.73.07-.21.17-.42.29-.61.27-.44.57-.82.89-1.14.28-.28.57-.48.88-.61s.58-.14.82-.06c.11.04.23.09.35.16.12.07.23.13.31.18.08.05.2.14.35.25.15.11.26.19.33.23,0,0,.25-7.44-.13-7.89-.37-.98-1.61-.36-2.24.28,0,.68,0-2.16-.03-1.45ZM66.67,47.82c.67.36,1.49.19,2.45-.53,0,0,0,0,0,0v-3.82s0,0,0,0c-.25-.15-.59-.26-1.04-.31-.35-.04-.69.15-1.03.56-.33.41-.59.89-.76,1.44-.17.54-.23,1.08-.19,1.61s.23.88.56,1.05Z"/>
              <path class="cls-2" d="M73.35,41.18s0,0,0,0c-.44-.22-.76-.55-.97-.99.02-.15.15-.33.38-.56.24-.23.43-.36.58-.39.43.21.96.96.96.97,0,0,0,0,0,0,0,0-.46.72-.95.98ZM74.12,42.39v6.52s0,0,0,0l-1.6-.38s0,0,0,0v-6.52s0,0,0,0l1.6.38s0,0,0,0Z"/>
              <path class="cls-2" d="M76.47,43.74l-.69-1.24s0,0,0,0c.6-.16,1.26-.32,1.99-.46.73-.14,1.19-.21,1.38-.2.19,0,.56.31,1.13.89.56.59.94,1.03,1.14,1.34.07.11.1.47.1,1.1s-.01,1.33-.03,2.13-.03,1.34-.02,1.62c0,0,0,0,0,0l-1.59-.39v-.69c-.68.74-1.24,1.1-1.68,1.1-.41,0-.93-.42-1.56-1.24-.63-.82-.95-1.4-.95-1.76,0-.28.18-.54.54-.78.36-.24.8-.42,1.31-.55.52-.13.98-.23,1.38-.31.4-.07.74-.12,1.03-.15v-.37c.02-.44-.2-.67-.64-.71-.41-.03-1.27.17-2.59.59h-.03s-.01.01-.01.01h-.03s-.01.01-.01.01h-.03s-.01.01-.01.01h-.03s-.01.01-.01.01h-.04s-.01.01-.01.01h-.03s-.01.01-.01.01ZM77.11,47.16c.08.13.22.21.44.24.21.04.54-.02.97-.18.43-.16.9-.44,1.4-.84,0,0,0,0,0,0v-1.2s.01,0,.01,0c-2.25.7-3.19,1.36-2.82,1.97Z"/>
              <path class="cls-2" d="M84.71,42.39v.56c.76-.75,1.43-1.11,2-1.08.27.02.75.38,1.44,1.08.69.7,1.05,1.18,1.1,1.44.03.24.05,4.14.05,6.92,0,0,0,0,0,0l-1.59-.71s0,0,0,0c.05-3.11.03-6.82-.06-7.01-.15-.31-.41-.4-.76-.28-.35.12-.72.34-1.1.66-.38.32-.74.69-1.07,1.12,0,0,0,0,0,0v3.82s0,0,0,0l-1.66-.38s0,0,0,0v-6.52s0,0,0,0l1.66.38Z"/>
            </g>
            <line class="cls-1" x1="11.03" y1="39.34" x2="91.66" y2="39.55"/>
            <path class="cls-2" d="M11.18,39.35c-.87-.43-1.51-1.09-1.94-1.98,0,0,0,0,0,0,.03-.29.29-.66.76-1.11.48-.45.86-.71,1.15-.79,0,0,0,0,0,0,.86.41,1.91,1.92,1.91,1.92,0,0,0,0,0,0,0,0-.92,1.43-1.89,1.95,0,0,0,0,0,0Z"/>
          </g>
          <path class="cls-2" d="M59.1,42.34v.56c.76-.75,1.43-1.11,2-1.08.27.02.75.38,1.44,1.08.69.7,1.05,1.18,1.1,1.44.03.24.05,4.14.05,6.92,0,0,0,0,0,0l-1.59-.71s0,0,0,0c.05-3.11.03-6.82-.06-7.01-.15-.31-.41-.4-.76-.28-.35.12-.72.34-1.1.66-.38.32-.74.69-1.07,1.12,0,0,0,0,0,0v3.82s0,0,0,0l-1.66-.38s0,0,0,0v-6.52s0,0,0,0l1.66.38Z"/>
        </g>
      </g>
      <g>
        <path class="cls-2" d="M91.52,40.08c-.77-.38-1.34-.96-1.71-1.75,0,0,0,0,0,0,.03-.26.26-.58.68-.98.42-.4.76-.63,1.01-.69,0,0,0,0,0,0,.76.37,1.69,1.69,1.69,1.7,0,0,0,0,0,0,0,0-.81,1.26-1.67,1.72,0,0,0,0,0,0Z"/>
        <g>
          <g>
            <g>
              <path class="cls-2" d="M18.22,41.34s0,0,0,0c-.36-.14-.71-.26-1.04-.35-.34-.09-.72-.14-1.14-.16-.42-.01-.8.04-1.12.17-.32.13-.62.37-.88.73-.26.36-.44.83-.53,1.41-.02.1.31.13.97.09s1.32-.09,1.95-.14c.63-.05,1.07-.01,1.31.12,0,0,0,0,0,0,.85.8,1.44,1.54,1.78,2.22.17.33.1.8-.22,1.42-.4.77-.98,1.34-1.74,1.7-1.34.65-2.81.41-4.41-.72-.5-.35-.37-.19-1.49,2.69h-.72s1.54-4.24,1.84-4.08c.3.15.69.31,1.15.47.46.16.87.24,1.22.25.81.02,1.48-.19,2-.63.52-.44.82-1.04.88-1.79,0-.08-.3-.07-.92.03-.62.1-1.25.2-1.88.28-.63.08-1.11.02-1.44-.19,0,0,0,0,0,0-.34-.29-.88-.86-1.6-1.72-.23-.3-.35-.62-.36-.97,0-.34.1-.69.32-1.05.22-.35.5-.67.82-.95.32-.28.71-.51,1.15-.69.44-.18.88-.27,1.31-.27.11,0,.32.07.63.22s.73.37,1.28.67c.24.13.67.37.67.37,0,0,.73-1.88.81-2.01.23.1.45.18.45.18l-1.02,2.7Z"/>
              <path class="cls-2" d="M26.2,43.5c.25.24.44.52.58.85.14.33.22.67.24,1.01.02.35,0,.69-.09,1.05-.08.35-.2.69-.37.99-.16.31-.37.58-.61.82-.24.24-.51.42-.8.54-.29.12-.61.17-.97.14-.35-.03-.72-.15-1.08-.35-.48-.27-.95-.62-1.41-1.03-.37-.34-.64-.71-.82-1.14-.18-.42-.26-.83-.25-1.23.01-.4.09-.8.22-1.2.13-.4.32-.74.58-1.03.25-.29.53-.54.83-.74.3-.2.62-.31.97-.32.35,0,.68.07,1.01.23.83.46,1.49.93,1.99,1.4ZM24.92,43.39c-.56-.41-1.15-.34-1.76.19-.5.45-.84,1.06-1.01,1.81-.19.86-.04,1.51.44,1.95.06.05.12.1.19.15.34.2.69.24,1.06.14.36-.11.68-.35.95-.72.27-.37.48-.77.63-1.19.15-.42.19-.85.12-1.29-.08-.44-.28-.78-.62-1.03Z"/>
              <path class="cls-2" d="M32.71,42.03l1.6.38s0,0,0,0c0,.01-.08,4.36-.04,5.95.12,1.07,1.43.68,1.51.6,0,0,0,0,0,0l.04,1.52s0,0,0,0c-.19.05-1.54.31-2.16-.3-1.06-.77-.95-2.29-.95-2.31,0,0,0,0,0,0-.68.74-1.31,1.09-1.89,1.05-.27-.02-.76-.35-1.46-1.01-.7-.65-1.07-1.11-1.12-1.36-.03-.23-.05-2.31-.05-4.95,0-.07-1.06-1.11-1.06-1.18l.26-.26,2.38,2.26s0,0,0,0c-.04,3.12-.02,4.78.06,4.97.17.25.43.34.78.25.35-.09.73-.35,1.15-.78.42-.43.74-.89.94-1.4,0,0,0,0,0,0v-3.42s0,0,0,0Z"/>
              <path class="cls-2" d="M35.63,42.97l-.38-.95h1.05s0,0,0,0c.01-1.56.15-4.29-.23-4.29-.47-.18-1.09.37-1.1.38,0,0,0,0,0,0v-1.37s0,0,0,0c.94-.5,1.86-.46,2.52.36.43.73.42.66.4,4.93,0,0,0,0,0,0h1.56s0,0,0,0l.38.95h-1.95s0,0,0,0v2.18c0,.24,0,.49,0,.74,0,.24,0,.48.04.69.03.22.07.42.11.6.04.18.12.33.22.44s.23.18.37.22c.15.04.33.01.56-.07.23-.09.48-.23.78-.43l.35.42c-.5.48-.91.82-1.24,1.01-.29.18-.72.12-1.27-.18-.37-.2-.72-.47-1-.79-.32-.35-.47-.66-.47-.92v-3.89h-.67Z"/>
              <path class="cls-2" d="M40.71,33.89c1.05-.2,1.58.12,1.94.99.22.46.3,5.11.3,8.14,0,0,0,0,0,0,.79-.81,1.48-1.19,2.06-1.14.27.02.75.38,1.44,1.08.69.7,1.05,1.18,1.1,1.44.03.19.03,3.66.03,5.04,0,0,0,0,0,0,.45.47.84.87.9,1.03-.37.32-.4.42-.37.32s-2.08-2.09-2.09-2.09c0,0,0,0,0,0,.05-3.11.03-4.92-.06-5.1-.16-.32-.43-.41-.79-.28-.36.13-.74.37-1.13.71-.39.34-.75.72-1.08,1.15,0,0,0,0,0,0v3.74s0,0,0,0l-1.6-.38s0,0,0,0c0-.02-.02-10.78,0-11.51-.05-.91-.04-1.25-.47-1.66-.46-.34-1.58.34-1.6.34,0,0,0,0,0,0,0-.01,0-.58-.01-1.29,0,0,0,0,0,0,.54-.38,1.43-.54,1.43-.54Z"/>
              <path class="cls-2" d="M55.47,40.01l.03,11.06s0,0,0,0l-1.92-.48s0,0,0,0v-11.14s0,0,0,0l1.89.56s0,0,0,0Z"/>
              <path class="cls-2" d="M66.73,33.67c1.33-1.15,2.97-1.13,3.67-.18.37.45.33,2.89.33,2.87,0,0,0,0,0,0,.47,4.32.05,12.09,0,12.15-.04,0-.26.06-.66.16s-.65.15-.76.17c-.11.02-.34.05-.69.08-.35.04-.62.04-.82,0-.2-.04-.45-.1-.75-.18-.3-.09-.59-.21-.86-.37-.49-.28-.86-.63-1.13-1.03s-.41-.83-.42-1.25c-.02-.57.07-1.14.27-1.73.07-.21.17-.42.29-.61.27-.44.57-.82.89-1.14.28-.28.57-.48.88-.61s.58-.14.82-.06c.11.04.23.09.35.16.12.07.23.13.31.18.08.05.2.14.35.25.15.11.26.19.33.23,0,0,.25-7.44-.13-7.89-.37-.98-1.61-.36-2.24.28,0,.68,0-2.16-.03-1.45ZM66.67,47.82c.67.36,1.49.19,2.45-.53,0,0,0,0,0,0v-3.82s0,0,0,0c-.25-.15-.59-.26-1.04-.31-.35-.04-.69.15-1.03.56-.33.41-.59.89-.76,1.44-.17.54-.23,1.08-.19,1.61s.23.88.56,1.05Z"/>
              <path class="cls-2" d="M73.35,41.18s0,0,0,0c-.44-.22-.76-.55-.97-.99.02-.15.15-.33.38-.56.24-.23.43-.36.58-.39.43.21.96.96.96.97,0,0,0,0,0,0,0,0-.46.72-.95.98ZM74.12,42.39v6.52s0,0,0,0l-1.6-.38s0,0,0,0v-6.52s0,0,0,0l1.6.38s0,0,0,0Z"/>
              <path class="cls-2" d="M76.47,43.74l-.69-1.24s0,0,0,0c.6-.16,1.26-.32,1.99-.46.73-.14,1.19-.21,1.38-.2.19,0,.56.31,1.13.89.56.59.94,1.03,1.14,1.34.07.11.1.47.1,1.1s-.01,1.33-.03,2.13-.03,1.34-.02,1.62c0,0,0,0,0,0l-1.59-.39v-.69c-.68.74-1.24,1.1-1.68,1.1-.41,0-.93-.42-1.56-1.24-.63-.82-.95-1.4-.95-1.76,0-.28.18-.54.54-.78.36-.24.8-.42,1.31-.55.52-.13.98-.23,1.38-.31.4-.07.74-.12,1.03-.15v-.37c.02-.44-.2-.67-.64-.71-.41-.03-1.27.17-2.59.59h-.03s-.01.01-.01.01h-.03s-.01.01-.01.01h-.03s-.01.01-.01.01h-.03s-.01.01-.01.01h-.04s-.01.01-.01.01h-.03s-.01.01-.01.01ZM77.11,47.16c.08.13.22.21.44.24.21.04.54-.02.97-.18.43-.16.9-.44,1.4-.84,0,0,0,0,0,0v-1.2s.01,0,.01,0c-2.25.7-3.19,1.36-2.82,1.97Z"/>
              <path class="cls-2" d="M84.71,42.39v.56c.76-.75,1.43-1.11,2-1.08.27.02.75.38,1.44,1.08.69.7,1.05,1.18,1.1,1.44.03.24.05,4.14.05,6.92,0,0,0,0,0,0l-1.59-.71s0,0,0,0c.05-3.11.03-6.82-.06-7.01-.15-.31-.41-.4-.76-.28-.35.12-.72.34-1.1.66-.38.32-.74.69-1.07,1.12,0,0,0,0,0,0v3.82s0,0,0,0l-1.66-.38s0,0,0,0v-6.52s0,0,0,0l1.66.38Z"/>
            </g>
            <line class="cls-1" x1="11.03" y1="39.34" x2="91.66" y2="39.55"/>
            <path class="cls-2" d="M11.18,39.35c-.87-.43-1.51-1.09-1.94-1.98,0,0,0,0,0,0,.03-.29.29-.66.76-1.11.48-.45.86-.71,1.15-.79,0,0,0,0,0,0,.86.41,1.91,1.92,1.91,1.92,0,0,0,0,0,0,0,0-.92,1.43-1.89,1.95,0,0,0,0,0,0Z"/>
          </g>
          <path class="cls-2" d="M59.1,42.34v.56c.76-.75,1.43-1.11,2-1.08.27.02.75.38,1.44,1.08.69.7,1.05,1.18,1.1,1.44.03.24.05,4.14.05,6.92,0,0,0,0,0,0l-1.59-.71s0,0,0,0c.05-3.11.03-6.82-.06-7.01-.15-.31-.41-.4-.76-.28-.35.12-.72.34-1.1.66-.38.32-.74.69-1.07,1.12,0,0,0,0,0,0v3.82s0,0,0,0l-1.66-.38s0,0,0,0v-6.52s0,0,0,0l1.66.38Z"/>
        </g>
      </g>
      <path class="cls-2" d="M69.9,47.48c-.43-.22-.75-.56-.96-1.01.02-.14.15-.33.39-.55.24-.22.44-.35.58-.39.43.21.95.98.95.98,0,0-.47.71-.96.97Z"/>
      <path class="cls-2" d="M27.01,46.13c-.18.47-.48.83-.89,1.08-.14-.01-.32-.14-.54-.38-.22-.24-.36-.44-.4-.59.18-.47.86-1.07.86-1.07,0,0,.7.46.97.96Z"/>
      <path class="cls-2" d="M85.83,9.43h0c.09-.59.28-1.08.52-1.48.37-.61.86-1.02,1.31-1.32.23-.15.44-.28.63-.38.19-.11.35-.2.45-.28.04-.03.07-.06.09-.09.03-.04.05-.08.06-.14.01-.05.02-.12.02-.2s0-.16-.01-.24c0-.09-.02-.18-.02-.27,0-.05,0-.11.01-.18,0-.05.02-.1.05-.16.02-.04.05-.08.08-.12.05-.06.12-.1.18-.12.06-.02.13-.03.19-.03h0c.08,0,.15-.02.21-.05.1-.04.19-.12.26-.21.07-.09.12-.19.14-.25.03-.1.08-.21.17-.29.04-.04.09-.07.15-.1.06-.02.11-.03.17-.03.1,0,.19.03.27.08.12.07.21.18.29.31.08.13.14.28.2.46.06.22.11.5.11.83,0,.46-.09,1.01-.36,1.55-.27.54-.72,1.06-1.42,1.43-.47.25-.78.57-.99.89-.2.32-.29.66-.29.94,0,.27.08.5.2.66.06.08.14.14.23.19.09.05.19.08.32.08.05,0,.1,0,.15,0,.35,0,.61-.07.82-.18.16-.08.29-.19.41-.33.18-.2.33-.47.48-.78.15-.31.3-.66.48-1.03.33-.67.82-1.18,1.38-1.54.55-.35,1.16-.54,1.74-.54.08,0,.16,0,.25.01h0c.28.03.66.09,1.08.16,1,.18,2.21.45,2.65.55.15-.18.35-.39.61-.56.33-.23.77-.4,1.3-.4.21,0,.44.03.69.09.44.1,1,.32,1.53.74.49.38.95.94,1.25,1.7.95.13,1.79.42,2.52.83,1.17.66,2.05,1.63,2.68,2.74.61,1.09.97,2.31,1.12,3.53.26.39.61.86.96,1.29.18.23.37.44.54.63.17.19.33.35.45.45h0c.09.08.16.16.22.25.02.04.04.09.06.13-.29.28-.59.57-.88.86-.23,0-.5-.04-.8-.13-.2-.06-.41-.14-.63-.24-.1.71-.2,1.4-.3,2.05l-.09.6c-.38,2.59-.7,4.75-.7,4.75h-4.83s-.23-1.14-.35-1.72c-.06-.29-.13-.59-.19-.85-.06-.26-.12-.5-.16-.66-.14-.5-.33-.83-.53-1.04-.2-.2-.41-.28-.61-.29-.24,0-.48.12-.68.36-.2.25-.36.62-.4,1.13-.05.63-.25,2.74-.25,2.74l-.03.32h-4.62l-1.73-7.28c-.02-.06-.14-.47-.37-.94-.12-.25-.27-.52-.44-.77-.17-.24-.36-.46-.57-.62-.09-.07-.23-.13-.4-.16-.17-.03-.36-.05-.55-.05-.18,0-.36.01-.53.02-.17.01-.32.02-.46.02-.07,0-.13,0-.2-.01-.03,0-.07-.01-.1-.02-.04-.01-.08-.03-.12-.06h0c-.06-.04-.12-.11-.16-.19-.04-.08-.05-.16-.05-.23,0-.1.02-.17.04-.24.04-.12.1-.22.16-.33.1-.15.22-.31.34-.45.12-.14.24-.27.34-.37.11-.11.22-.26.31-.4.04-.06.06-.12.08-.17-.04,0-.08,0-.13.02h0c-.61.12-1.17.17-1.68.17-.8,0-1.48-.14-2.05-.38-.43-.18-.79-.43-1.09-.71-.45-.43-.76-.95-.96-1.5-.2-.55-.28-1.13-.28-1.68,0-.28.02-.55.06-.81ZM86.59,11.5c.19.62.53,1.18,1.09,1.59.56.42,1.35.7,2.46.7.47,0,.99-.05,1.57-.16h0c.1-.02.19-.03.28-.03.08,0,.16,0,.23.03.06.02.11.04.16.08.08.05.15.14.19.23.04.09.06.19.06.28,0,.13-.03.25-.07.36-.06.16-.15.31-.24.45-.1.14-.21.27-.32.38h0c-.13.13-.32.34-.47.53-.03.04-.06.08-.08.12.08,0,.18,0,.28-.02.17-.01.36-.02.56-.02.22,0,.45.01.67.06.22.05.44.12.64.27.29.22.53.49.73.79.3.44.53.91.67,1.28.15.37.22.63.23.64h0s1.61,6.78,1.61,6.78h3.54s0-.01,0-.02c.06-.62.18-1.93.22-2.39.05-.64.26-1.17.57-1.54.31-.38.72-.6,1.16-.59.37,0,.74.16,1.05.47.31.31.56.77.72,1.36.06.2.12.49.19.81.15.67.32,1.49.4,1.91h3.77c.08-.53.26-1.74.49-3.3l.09-.61c.15-1.02.31-2.15.48-3.34l.04-.46.24.1s.32.15.33.15c.28.15.54.25.77.32.27.08.49.11.66.11.05,0,.09,0,.13,0-.14-.13-.3-.29-.46-.47-.54-.6-1.18-1.43-1.61-2.07l-.05-.07v-.09c-.18-1.55-.73-3.1-1.69-4.3-.48-.6-1.07-1.12-1.78-1.52-.58-.33-1.25-.57-2.01-.71.08.37.12.79.12,1.24,0,.89-.17,1.94-.56,3.16-.41,1.26-1.05,2.19-1.81,2.78-.76.6-1.62.87-2.46.87-.96,0-1.88-.36-2.58-1.02-.35-.33-.63-.73-.84-1.2-.2-.47-.31-1-.31-1.57,0-.07,0-.14,0-.21l.64.04c0,.06,0,.12,0,.17,0,.47.09.9.25,1.27.24.56.64,1.01,1.13,1.32.49.31,1.09.49,1.69.49.71,0,1.44-.23,2.08-.74.65-.51,1.21-1.3,1.58-2.44.38-1.17.53-2.13.53-2.92,0-.61-.09-1.12-.23-1.55-.25-.72-.65-1.22-1.09-1.56-.44-.35-.93-.54-1.29-.62-.21-.05-.39-.07-.56-.07-.41,0-.72.12-.97.29-.25.17-.44.39-.59.58l-.12.15-.18-.04s-.04,0-.12-.03c-.28-.06-.98-.22-1.73-.37-.37-.08-.76-.15-1.11-.21-.35-.06-.66-.11-.88-.13h0c-.06,0-.12,0-.19,0-.45,0-.96.15-1.42.45-.46.29-.87.72-1.13,1.26-.15.3-.28.61-.42.91-.11.23-.22.45-.35.66-.2.31-.44.6-.77.81-.33.21-.73.32-1.21.32-.06,0-.12,0-.18,0-.2-.01-.4-.06-.57-.15-.26-.13-.46-.35-.59-.61-.13-.26-.2-.57-.2-.88,0-.44.13-.92.4-1.35.27-.43.68-.83,1.23-1.13.58-.32.93-.72,1.13-1.14.21-.41.28-.85.28-1.21,0-.26-.04-.48-.08-.6-.03-.1-.06-.18-.09-.24-.02.05-.05.1-.08.15-.1.17-.24.32-.42.45-.15.1-.32.17-.51.2,0,.03,0,.07,0,.12,0,.09.02.2.02.31,0,.16-.02.34-.09.53-.04.09-.08.19-.15.27-.06.08-.14.16-.24.23-.2.14-.44.27-.7.42-.39.23-.82.51-1.18.92-.18.2-.34.43-.47.7-.13.27-.23.58-.28.94h0c-.03.22-.05.45-.05.69,0,.42.06.85.18,1.26Z"/>
    </g>
  </g>
</svg>